<!DOCTYPE svg PUBLIC "-//W3C//DTD SVG 1.1//EN" "http://www.w3.org/Graphics/SVG/1.1/DTD/svg11.dtd">
<!-- Uploaded to: SVG Repo, www.svgrepo.com, Transformed by: SVG Repo Mixer Tools -->
<svg height="800px" width="800px" version="1.1" id="Capa_1" xmlns="http://www.w3.org/2000/svg" xmlns:xlink="http://www.w3.org/1999/xlink" viewBox="0 0 55.466 55.466" xml:space="preserve" fill="#000000" transform="rotate(-45)matrix(1, 0, 0, 1, 0, 0)" stroke="#000000" stroke-width="0.00055466">
<g id="SVGRepo_bgCarrier" stroke-width="0"/>
<g id="SVGRepo_tracerCarrier" stroke-linecap="round" stroke-linejoin="round" stroke="#CCCCCC" stroke-width="1.5530480000000002"/>
<g id="SVGRepo_iconCarrier"> <g> <g> <path style="fill:#ffffff;" d="M42.688,40.391c-0.692-7.164-5.062-24.777-31.105-27.838c-30.804-3.62,7.348,12.453,27.485,27.838 H38.68h-4.458H5.554c0,0,2.375,2.971,10.695,2.971c6.709,0,21.144,0,26.478,0c0.023,0.021,0.053,0.044,0.077,0.064 c0,0,0.003-0.026,0.003-0.064c1.234,0,1.961,0,1.961,0c8.617,0.593,10.698-2.971,10.698-2.971H42.688z"/> </g> </g> </g>
</svg>